<svg width="194" height="194" viewBox="0 0 194 194" fill="none" xmlns="http://www.w3.org/2000/svg">
<path d="M97 193.418C150.295 193.418 193.5 150.232 193.5 96.9592C193.5 43.6861 150.295 0.5 97 0.5C43.7047 0.5 0.5 43.6861 0.5 96.9592C0.5 150.232 43.7047 193.418 97 193.418Z" fill="white" stroke="#F0F0F0"/>
<ellipse cx="96.925" cy="96.8843" rx="76.8" ry="76.7674" fill="white"/>
<path d="M73.5625 93.5857C67.634 102.377 34.4717 130.221 42.775 133.659C51.0782 137.097 59.9775 138.866 68.9649 138.866C77.9522 138.866 86.8516 137.097 95.1548 133.659C103.458 130.221 111.003 125.182 117.358 118.83C123.713 112.478 128.754 104.936 132.193 96.6368C135.632 88.3371 137.402 79.4415 137.402 70.458C137.402 61.4745 135.381 47.349 131.942 39.0493C128.502 30.7496 85.6275 75.6946 73.5625 93.5857Z" fill="#B8FFB5"/>
<path d="M77.7784 87.3997C69.7755 94.3577 33.0408 127.035 40.1709 132.504C47.3011 137.972 55.439 141.984 64.1201 144.309C72.8012 146.634 81.8555 147.227 90.766 146.055C99.6764 144.882 108.269 141.967 116.052 137.475C123.835 132.983 130.657 127.003 136.128 119.876C141.599 112.749 145.613 104.614 147.939 95.9369C150.265 87.2595 151.97 73.0923 150.797 64.1856C149.623 55.279 94.0648 73.2396 77.7784 87.3997Z" fill="#BAB2FF"/>
</svg>
