<svg width="512" height="512" viewBox="0 0 512 512" fill="none" xmlns="http://www.w3.org/2000/svg">
<circle cx="256" cy="256" r="256" fill="white"/>
<path d="M256.5 439C280.466 439 304.198 434.279 326.34 425.108C348.482 415.937 368.6 402.494 385.547 385.547C402.494 368.6 415.937 348.482 425.108 326.34C434.28 304.198 439 280.466 439 256.5C439 232.534 434.279 208.802 425.108 186.66C415.937 164.518 402.494 144.4 385.547 127.453C368.6 110.506 348.482 97.0635 326.34 87.892C304.198 78.7205 280.466 74 256.5 74L256.5 256.5L256.5 439Z" fill="#1E1E1E"/>
<path d="M256.5 74C232.534 74 208.802 78.7205 186.66 87.892C164.518 97.0635 144.4 110.506 127.453 127.453C110.506 144.4 97.0635 164.518 87.892 186.66C78.7205 208.802 74 232.534 74 256.5C74 280.466 78.7205 304.198 87.892 326.34C97.0635 348.482 110.506 368.6 127.453 385.547C144.4 402.494 164.518 415.937 186.66 425.108C208.802 434.279 232.534 439 256.5 439L256.5 256.5L256.5 74Z" fill="#1E1E1E"/>
<path d="M175.243 255.792C175.243 272.11 178.876 286.515 186.141 299.006C193.607 311.497 203.294 321.268 215.2 328.32C227.106 335.371 240.022 338.896 253.946 338.896C264.036 338.896 273.218 337.587 281.492 334.968C289.968 332.349 297.636 328.722 304.497 324.089C311.359 319.254 317.211 313.713 322.054 307.468V341.314C313.175 349.171 303.488 355.014 292.995 358.842C282.501 362.67 269.485 364.583 253.946 364.583C239.214 364.583 225.391 361.964 212.476 356.726C199.762 351.287 188.562 343.732 178.876 334.061C169.189 324.189 161.622 312.605 156.173 299.308C150.724 286.012 148 271.506 148 255.792C148 240.077 150.724 225.572 156.173 212.275C161.622 198.978 169.189 187.495 178.876 177.824C188.562 167.952 199.762 160.398 212.476 155.159C225.391 149.72 239.214 147 253.946 147C269.485 147 282.501 148.914 292.995 152.742C303.488 156.57 313.175 162.412 322.054 170.269V204.116C317.211 197.87 311.359 192.431 304.497 187.797C297.636 182.962 289.968 179.235 281.492 176.616C273.218 173.996 264.036 172.687 253.946 172.687C240.022 172.687 227.106 176.213 215.2 183.264C203.294 190.315 193.607 200.086 186.141 212.577C178.876 224.867 175.243 239.271 175.243 255.792Z" fill="#C0FC34"/>
<path d="M191.466 308.44C196.309 316.902 205.138 319.701 210.385 326.147C215.834 332.594 222.645 334.061 229.304 337.688C235.964 341.314 250.976 340.407 259.451 340.407C270.752 340.407 279.833 337.285 286.695 331.039C293.556 324.794 296.986 316.836 296.986 307.166C296.986 297.697 294.767 290.142 290.327 284.501C285.887 278.86 280.035 274.327 272.77 270.902C265.707 267.275 258.14 264.052 250.068 261.231C244.821 259.418 238.968 257.101 232.511 254.281C226.053 251.259 219.898 247.532 214.046 243.099C208.194 238.466 203.35 232.825 199.516 226.176C195.884 219.528 194.068 211.368 194.068 201.698C194.068 191.222 196.691 181.854 201.938 173.594C207.185 165.333 214.45 158.886 223.732 154.253C233.015 149.418 243.61 147 255.516 147C267.019 147 277.008 149.216 285.484 153.648C294.161 157.879 301.527 163.419 307.581 170.269C313.635 176.918 318.103 162.815 321.534 170.269V203.379C318.91 198.141 303.104 187.167 299.068 182.131C295.032 177.094 303.737 184.174 297.885 180.95C292.235 177.727 262.277 171.478 254.003 171.478C242.5 171.478 234.125 174.299 228.878 179.94C223.632 185.379 221.008 191.524 221.008 198.374C221.008 204.216 222.522 209.656 225.549 214.693C228.576 219.528 233.621 224.162 240.684 228.594C247.949 232.825 257.736 237.055 270.046 241.286C275.696 243.301 281.65 245.92 287.905 249.143C294.161 252.367 299.913 256.497 305.159 261.533C310.608 266.369 315.048 272.312 318.478 279.363C321.909 286.213 323.624 294.473 323.624 304.144C323.624 313.411 321.808 321.772 318.176 329.226C314.745 336.68 309.902 343.027 303.646 348.265C297.592 353.503 290.63 357.532 282.759 360.353C275.091 363.173 267.019 364.583 258.543 364.583C247.041 364.583 236.345 362.166 226.457 357.331C216.77 352.294 203.663 348.466 196.196 340.407C188.931 332.147 174.824 329.125 170.182 319.858L191.466 308.44Z" fill="#C0FC34"/>
<path d="M337.757 257.208C337.757 240.89 334.124 226.485 326.859 213.994C319.393 201.503 309.706 191.732 297.8 184.68C285.894 177.629 272.978 174.104 259.054 174.104C248.964 174.104 239.782 175.413 231.508 178.032C223.032 180.651 215.364 184.278 208.503 188.911C201.641 193.746 195.789 199.287 190.946 205.532L190.946 171.686C199.825 163.829 209.512 157.986 220.005 154.158C230.499 150.33 243.515 148.417 259.054 148.417C273.786 148.417 287.609 151.036 300.524 156.274C313.238 161.713 324.438 169.268 334.124 178.939C343.811 188.811 351.378 200.395 356.827 213.692C362.276 226.988 365 241.494 365 257.208C365 272.923 362.276 287.428 356.827 300.725C351.378 314.022 343.811 325.505 334.124 335.176C324.438 345.048 313.238 352.602 300.524 357.841C287.609 363.28 273.786 366 259.054 366C243.515 366 230.499 364.086 220.005 360.258C209.512 356.43 199.825 350.588 190.946 342.731L190.946 308.884C195.789 315.13 201.641 320.569 208.503 325.203C215.364 330.038 223.032 333.765 231.508 336.384C239.782 339.004 248.964 340.313 259.054 340.313C272.978 340.313 285.894 336.787 297.8 329.736C309.706 322.685 319.393 312.914 326.859 300.423C334.124 288.133 337.757 273.729 337.757 257.208Z" fill="#C0FC34"/>
<path d="M321.534 204.56C316.691 196.098 307.862 193.299 302.615 186.853C297.166 180.406 290.355 178.939 283.696 175.312C277.037 171.686 262.024 172.593 253.549 172.593C242.248 172.593 233.167 175.715 226.305 181.961C219.444 188.206 216.014 196.164 216.014 205.834C216.014 215.303 218.233 222.858 222.673 228.499C227.113 234.14 232.965 238.673 240.23 242.098C247.293 245.725 254.86 248.948 262.932 251.769C268.179 253.582 274.032 255.899 280.489 258.719C286.947 261.741 293.102 265.468 298.954 269.901C304.806 274.534 309.65 280.175 313.484 286.824C317.116 293.472 318.932 301.632 318.932 311.302C318.932 321.778 316.309 331.146 311.062 339.406C305.815 347.667 298.55 354.114 289.268 358.747C279.985 363.582 269.39 366 257.484 366C245.981 366 235.992 363.784 227.516 359.352C218.839 355.121 211.473 349.581 205.419 342.731C199.365 336.082 194.897 350.185 191.466 342.731L191.466 309.621C194.09 314.859 209.896 325.833 213.932 330.869C217.968 335.906 209.263 328.826 215.115 332.05C220.765 335.273 250.723 341.522 258.997 341.522C270.5 341.522 278.875 338.701 284.122 333.06C289.368 327.621 291.992 321.476 291.992 314.626C291.992 308.784 290.478 303.344 287.451 298.307C284.424 293.472 279.379 288.838 272.316 284.406C265.051 280.175 255.264 275.945 242.954 271.714C237.304 269.699 231.35 267.08 225.095 263.857C218.839 260.633 213.087 256.503 207.841 251.467C202.392 246.631 197.952 240.688 194.522 233.637C191.091 226.787 189.376 218.527 189.376 208.856C189.376 199.589 191.192 191.228 194.824 183.774C198.255 176.32 203.098 169.973 209.354 164.735C215.408 159.497 222.37 155.468 230.241 152.647C237.909 149.827 245.981 148.417 254.457 148.417C265.959 148.417 276.655 150.834 286.543 155.669C296.23 160.706 309.337 164.534 316.804 172.593C324.069 180.853 338.176 183.875 342.818 193.142L321.534 204.56Z" fill="#C0FC34"/>
</svg>
