<svg width="236" height="236" viewBox="0 0 236 236" fill="none" xmlns="http://www.w3.org/2000/svg">
<path d="M236 118C236 183.17 183.17 236 118 236C52.8304 236 0 183.17 0 118C0 52.8304 52.8304 0 118 0C183.17 0 236 52.8304 236 118Z" fill="#404040"/>
<path d="M143.607 49.8829L145.687 42.2651L136.325 38.8025L135.285 45.7277L143.607 49.8829Z" fill="#FFB6B6"/>
<path opacity="0.1" d="M143.607 50.2531L145.687 42.6353L140.174 40.313L141.887 49.2936L143.607 50.2531Z" fill="black"/>
<path d="M190.47 90.2583C191.589 88.506 190.26 85.663 187.502 83.9081C186.295 83.1399 185.015 82.7077 183.862 82.6114L182.264 81.622L161.154 67.3452C161.154 67.3452 146.85 51.06 143.731 49.7902C140.611 48.5204 138.022 50.4918 138.022 50.4918L136.622 54.0159L159.052 75.9892L178.14 86.0741L180.738 87.5064C181.313 88.5088 182.246 89.4856 183.453 90.2537C186.21 92.0085 189.352 92.0106 190.47 90.2583Z" fill="#FFB6B6"/>
<path d="M136.056 42.0936C136.056 42.0936 132.46 43.7324 131.614 47.5891C130.769 51.4459 157.993 76.4249 157.993 76.4249L167.322 71.3103L136.056 42.0936Z" fill="white"/>
<path d="M152.795 34.1519C152.795 39.5065 148.449 43.8473 143.087 43.8473C137.725 43.8473 133.378 39.5065 133.378 34.1519C133.378 28.7973 137.725 24.4565 143.087 24.4565C148.449 24.4565 152.795 28.7973 152.795 34.1519Z" fill="#FFB6B6"/>
<path d="M165.798 174.908L172.386 191.182L176.2 187.373L177.587 180.102L172.04 173.177L165.798 174.908Z" fill="#FFB6B6"/>
<path d="M128.403 171.599L125.478 181.231L130.863 185.663L136.779 181.903L136.007 171.636L128.403 171.599Z" fill="#FFB6B6"/>
<path d="M147.941 78.1273L148.808 92.151L127.31 88.3421L128.697 79.6855L147.941 78.1273Z" fill="#FFB6B6"/>
<path d="M148.981 92.3241L127.31 85.2257C127.31 85.2257 119.335 101.154 128.004 111.195C136.672 121.237 165.452 178.37 165.452 178.37L174.12 174.215L161.637 137.858L147.768 104.27L148.981 92.3241Z" fill="#2F2E41"/>
<path d="M124.374 103.673L131.545 140.274L127.1 172.935L137.45 174.028L146.122 133.81L142.997 107.159L124.374 103.673Z" fill="#2F2E41"/>
<path d="M180.708 178.717H186.713C186.713 178.717 193.72 175.947 195.363 178.717C197.005 181.487 188.035 189.343 188.035 189.343C188.035 189.343 175.507 196.376 173.773 196.03C172.04 195.684 171.346 191.528 171.346 191.528L169.266 186.681L172.386 187.72C172.386 187.72 176.547 185.296 175.507 181.141L180.708 178.717Z" fill="black"/>
<path d="M127.168 181.619L125.76 178.454L123.483 183.253C123.483 183.253 118.329 188.191 125.193 190.829C132.058 193.468 140.33 195.861 140.33 195.861C140.33 195.861 150.963 194.177 150.33 191.048C149.698 187.918 148.551 187.047 148.551 187.047L144.311 186.897L137.483 180.075L132.694 182.956L127.168 181.619Z" fill="#2F2E41"/>
<path d="M140.139 36.0563L143.26 35.7101L148.981 29.9967C148.981 29.9967 154.182 32.7668 154.182 30.6893C154.182 20.9939 148.288 21.3402 143.433 20.6476C138.579 19.9551 139.099 19.782 137.539 22.379C136.825 23.5666 134.245 24.2834 134.245 24.2834C134.245 24.2834 129.391 17.7044 126.963 25.6685C124.536 33.6325 127.657 58.2172 125.23 60.2948C122.802 62.3723 135.196 64.4468 133.853 56.3112C132.511 48.1755 130.084 35.7101 131.471 32.94C132.858 30.1699 133.205 30.8624 133.205 30.8624C131.486 30.1616 130.363 42.5057 136.843 43.1101L137.019 37.0951C137.019 37.0951 138.059 33.9788 140.139 36.0563Z" fill="black"/>
<path d="M144.474 48.0024L134.071 43.8473L120.202 85.3988L148.739 84.3608L151.308 71.959C151.308 71.959 153.817 65.5043 151.736 61.6954C149.656 57.8865 144.474 48.0024 144.474 48.0024Z" fill="white"/>
<path d="M117.406 117.607C119.479 117.784 121.386 115.291 121.666 112.038C121.788 110.614 121.579 109.28 121.13 108.216L121.268 106.343L124.157 81.0462C124.157 81.0462 129.535 60.354 129.217 57.0053C128.899 53.6566 128.396 52.7675 128.396 52.7675L124.62 53.1607L115.512 83.1913L115.406 104.756L115.339 107.719C114.715 108.692 114.281 109.97 114.158 111.394C113.879 114.647 115.332 117.429 117.406 117.607Z" fill="#FFB6B6"/>
<path d="M134.938 47.1368C134.938 47.1368 131.818 44.7129 128.004 45.7517C124.189 46.7905 114.635 82.4556 114.635 82.4556L123.496 88.3421L134.938 47.1368Z" fill="white"/>
<path d="M78.1149 132.089C78.1149 133.458 74.7848 106.267 74.7848 106.267L50.5536 109.2C46.1793 109.729 43.1708 113.85 44.0039 118.171L48.5356 141.674C48.9257 142.147 49.5264 142.592 50.2986 143.01V196.252H53.6287V144.334C56.3089 145.148 59.7697 145.781 63.6191 146.19V196.252H66.9492V146.483C72.5809 146.874 78.7493 146.809 84.3834 146.175V196.252H87.7135V145.72C88.7216 145.557 89.7037 145.374 90.6519 145.169V196.252H93.982V144.315C95.7932 143.766 97.416 143.116 98.7813 142.359C111.122 135.512 78.1149 130.719 78.1149 132.089Z" fill="#282828"/>
<path d="M102.514 181.785L106.618 185.883L112.284 188.81L111.698 193.884L100.951 192.713L99.5829 189.981L99.9737 187.639L99.1921 183.931L102.514 181.785Z" fill="#FFB6B6"/>
<path d="M110.917 191.932L111.252 187.627L122.837 193.103C122.837 193.103 123.734 195.64 120.94 196.03C118.147 196.42 99.5829 196.42 99.5829 195.445C99.5829 194.469 99.0752 189.474 99.0752 189.474L110.33 192.713L110.917 191.932Z" fill="#2F2E41"/>
<path d="M87.7546 170.403L84.7865 175.383L83.3393 181.588L78.2705 182.268L76.7634 171.577L79.0786 169.581L81.4476 169.384L84.854 167.715L87.7546 170.403Z" fill="#FFB6B6"/>
<path d="M79.9723 181.032L84.2335 180.298L81.7678 192.858C81.7678 192.858 79.5262 194.35 78.4603 191.742C77.3944 189.134 72.8282 171.165 73.7753 170.925C74.7223 170.685 79.4459 168.965 79.4459 168.965L79.0705 180.656L79.9723 181.032Z" fill="black"/>
<path d="M74.8827 77.2172L74.2951 89.1501L83.6978 89.3457V79.0803L74.8827 77.2172Z" fill="#FFB6B6"/>
<path opacity="0.1" d="M74.8827 77.2172L74.2951 89.1501L83.6978 89.3457V79.0803L74.8827 77.2172Z" fill="black"/>
<path d="M59.0157 126.514C59.0157 126.514 54.7061 137.664 57.8403 142.163C60.9746 146.662 75.6663 149.206 75.6663 149.206L81.7389 154.878L97.8019 185.786L107.205 183.635L93.8841 151.944C93.8841 151.944 86.0485 139.229 83.1101 137.468C80.1718 135.708 74.7004 129.097 74.7004 129.097L59.0157 126.514Z" fill="white"/>
<path d="M85.6567 127.492L91.6909 131.759C91.6909 131.759 113.081 137.468 106.225 150.77C99.369 164.073 89.1827 173.658 89.1827 173.658L80.1718 168.572L94.6676 148.227L69.2019 132.773L85.6567 127.492Z" fill="white"/>
<path d="M140.504 111.27C143.34 111.84 145.344 113.763 144.98 115.565C144.617 117.367 142.024 118.366 139.187 117.795C138.051 117.583 136.982 117.102 136.071 116.393L124.087 113.827L125.115 109.097L137.085 111.36C138.201 111.058 139.374 111.027 140.504 111.27Z" fill="#FFB6B6"/>
<path d="M83.2081 84.9442H71.0182L62.052 91.0085L62.8355 114.874C62.8355 114.874 64.4739 120.867 58.9177 126.416C55.5876 129.741 56.7629 131.697 56.7629 131.697L76.5478 133.262L88.3991 129.839L84.0896 119.08L84.8731 115.754C84.8731 115.754 92.9046 110.081 91.5334 104.213C90.1622 98.3442 88.3991 86.2158 88.3991 86.2158L83.2081 84.9442Z" fill="#121212"/>
<path d="M111.887 105.126L88.2414 86.2025C88.2414 86.2025 83.638 87.4515 84.2336 91.7851C84.8291 96.1187 95.3246 107.08 95.3246 107.08L113.368 115.255L134.027 116.309L134.878 110.276L111.887 105.126Z" fill="#121212"/>
<path d="M80.4656 82.7924C85.0095 82.7924 88.693 79.114 88.693 74.5764C88.693 70.0388 85.0095 66.3603 80.4656 66.3603C75.9218 66.3603 72.2382 70.0388 72.2382 74.5764C72.2382 79.114 75.9218 82.7924 80.4656 82.7924Z" fill="#FFB6B6"/>
<path d="M78.2129 76.2391C78.2129 76.2391 82.1307 72.5224 83.6978 70.7618C85.2649 69.0012 91.9252 73.5005 90.5539 70.1749C89.1827 66.8494 87.2238 66.0669 87.2238 66.0669C87.2238 66.0669 83.6978 59.0246 76.8416 63.1326C76.8416 63.1326 76.8416 58.8289 71.3567 60.5895C65.8718 62.3501 63.3252 78.5866 64.8924 80.1515C66.4595 81.7165 68.0266 82.8902 66.8513 85.8245C65.6759 88.7588 66.8513 101.865 71.1608 103.626C75.4704 105.387 76.254 106.631 75.0786 109.432C73.9033 112.233 70.9649 118.493 76.4499 116.928C81.9348 115.363 76.0581 117.319 78.4088 112.233C80.7594 107.147 86.4403 104.8 81.9348 100.3C77.4293 95.8012 77.6252 86.4114 76.6458 85.4333C75.6663 84.4552 73.8214 76.3092 73.8214 76.3092C73.8214 76.3092 77.0375 74.2829 78.2129 76.2391Z" fill="black"/>
<path d="M173.987 195.934H99.902C94.9998 195.934 91.0119 191.952 91.0119 187.056V81.615C91.0119 76.7188 94.9998 72.7364 99.902 72.7364H173.987C178.889 72.7364 182.877 76.7188 182.877 81.615V187.056C182.877 191.952 178.889 195.934 173.987 195.934Z" fill="white"/>
<path fill-rule="evenodd" clip-rule="evenodd" d="M99.902 194.934H173.987C178.338 194.934 181.877 191.398 181.877 187.056V81.615C181.877 77.2724 178.338 73.7364 173.987 73.7364H99.902C95.5509 73.7364 92.0119 77.2724 92.0119 81.615V187.056C92.0119 191.398 95.5509 194.934 99.902 194.934ZM99.902 195.934H173.987C178.889 195.934 182.877 191.952 182.877 187.056V81.615C182.877 76.7188 178.889 72.7364 173.987 72.7364H99.902C94.9998 72.7364 91.0119 76.7188 91.0119 81.615V187.056C91.0119 191.952 94.9998 195.934 99.902 195.934Z" fill="#282828"/>
<path d="M107.765 112.933L165.679 111.184C169.701 111.063 170.087 104.78 166.028 104.902L108.114 106.651C104.092 106.772 103.706 113.055 107.765 112.933Z" fill="#C0FC34"/>
<path d="M107.765 133.905L165.679 132.156C169.701 132.035 170.087 125.752 166.028 125.874L108.114 127.623C104.092 127.744 103.706 134.027 107.765 133.905Z" fill="#C0FC34"/>
<path d="M107.765 154.877L165.679 153.129C169.701 153.007 170.087 146.724 166.028 146.847L108.114 148.595C104.092 148.716 103.706 154.999 107.765 154.877Z" fill="#C0FC34"/>
<path d="M95.2513 141.836C97.3238 143.85 97.9627 146.552 96.6785 147.868C95.3942 149.185 92.6735 148.619 90.6006 146.604C89.7614 145.81 89.1249 144.827 88.7442 143.737L80.0708 135.089L83.504 131.673L92.331 140.058C93.4326 140.409 94.434 141.019 95.2513 141.836Z" fill="#FFB6B6"/>
<path d="M74.6869 120.058L65.8718 91.1063C65.8718 91.1063 61.3663 89.5413 59.4074 93.4537C57.4485 97.3661 59.9126 112.331 59.9126 112.331L70.1814 129.252L86.6361 141.772L90.7498 137.273L74.6869 120.058Z" fill="#121212"/>
</svg>
