<svg width="236" height="236" viewBox="0 0 236 236" fill="none" xmlns="http://www.w3.org/2000/svg">
<circle cx="118" cy="118" r="118" fill="white"/>
<path d="M173.126 153.078C172.119 154.21 171.074 155.319 169.991 156.401C155.448 170.944 136.111 178.954 115.544 178.954C97.7674 178.954 80.9113 172.971 67.2742 161.956C67.2655 161.95 67.2597 161.945 67.2511 161.936C65.4419 160.477 63.6906 158.925 62 157.287C62.0318 157.032 62.0666 156.78 62.1042 156.531C62.3416 154.852 62.605 153.252 62.9002 151.778C65.3174 139.701 97.1219 127.023 97.9497 126.692C97.9613 126.69 97.9671 126.687 97.9671 126.687C97.9671 126.687 102.06 141.774 119.599 141.58C131.546 141.45 129.23 126.687 129.23 126.687C129.23 126.687 129.375 126.716 129.647 126.773C133.098 127.506 157.055 132.768 166.506 139.95C169.386 142.139 171.453 146.799 172.938 152.357C173.002 152.595 173.062 152.838 173.126 153.078Z" fill="#121212"/>
<path d="M116.922 125.482C130.726 125.482 141.917 114.291 141.917 100.486C141.917 86.6814 130.726 75.4904 116.922 75.4904C103.117 75.4904 91.9258 86.6814 91.9258 100.486C91.9258 114.291 103.117 125.482 116.922 125.482Z" fill="#FFB6B6"/>
<path d="M96.2325 131.079L101.443 117.763L128.364 113.711L131.257 143.187L104.046 143.766L96.2325 131.079Z" fill="#FFB6B6"/>
<path d="M142.159 105.098C141.835 106.398 141.179 109.492 140.155 109.507C139.319 109.52 138.518 96.0947 139.353 93.8741C140.313 91.3231 137.791 88.0961 135.89 86.4395C132.473 83.461 124.888 89.8567 117.175 86.9594C116.971 86.8827 117.012 86.8914 114.576 85.9197C107.082 82.9295 106.688 82.8432 106.258 82.8005C102.625 82.4411 98.1916 85.414 96.3811 89.0388C94.4991 92.8067 96.0716 96.0386 94.3017 105.154C94.0955 106.217 93.7716 107.731 93.262 107.754C92.3304 107.794 91.4208 102.819 91.1826 101.515C90.1845 96.0553 89.2222 90.7913 91.1826 84.88C91.3964 84.2352 92.7143 81.8421 95.3414 77.0821C99.1261 70.225 101.03 66.7835 101.58 66.1651C105.525 61.7286 112.706 57.6814 118.735 59.407C121.782 60.2792 121.236 61.6814 124.973 63.046C131.633 65.4778 137.422 62.5038 138.489 64.6056C139.055 65.7189 137.473 66.6368 137.45 68.7644C137.41 72.4151 142.028 73.47 144.728 77.0821C146.179 79.024 148.664 79.0448 142.159 105.098Z" fill="#3E3E44"/>
</svg>
