<svg width="236" height="236" viewBox="0 0 236 236" fill="none" xmlns="http://www.w3.org/2000/svg">
<circle cx="118" cy="118" r="118" fill="#404040"/>
<path d="M166.627 85.8956H61.3137C53.4659 85.8868 45.9421 82.7622 40.3929 77.2073C34.8437 71.6524 31.7222 64.121 31.7134 56.2652V43.3499C31.7222 35.4941 34.8436 27.9626 40.3929 22.4077C45.9421 16.8528 53.4659 13.7282 61.3137 13.7193H179.529C187.377 13.7282 194.9 16.8528 200.45 22.4077C205.999 27.9626 209.12 35.4941 209.129 43.3499C209.116 54.6298 204.634 65.4441 196.666 73.4202C188.698 81.3963 177.895 85.8829 166.627 85.8956Z" fill="white"/>
<path d="M139.46 33.1735H69.847C69.4489 33.1735 69.067 33.0151 68.7855 32.7333C68.504 32.4515 68.3458 32.0693 68.3458 31.6707C68.3458 31.2722 68.504 30.8899 68.7855 30.6081C69.067 30.3263 69.4489 30.168 69.847 30.168H139.46C139.858 30.168 140.24 30.3263 140.522 30.6081C140.803 30.8899 140.961 31.2722 140.961 31.6707C140.961 32.0693 140.803 32.4515 140.522 32.7333C140.24 33.0151 139.858 33.1735 139.46 33.1735Z" fill="#E6E6E6"/>
<path d="M174.699 49.2066H69.847C69.4489 49.2066 69.067 49.0483 68.7855 48.7665C68.504 48.4847 68.3458 48.1025 68.3458 47.7039C68.3458 47.3054 68.504 46.9231 68.7855 46.6413C69.067 46.3595 69.4489 46.2012 69.847 46.2012H174.699C175.098 46.2012 175.479 46.3595 175.761 46.6413C176.043 46.9231 176.201 47.3054 176.201 47.7039C176.201 48.1025 176.043 48.4847 175.761 48.7665C175.479 49.0483 175.098 49.2066 174.699 49.2066Z" fill="#E6E6E6"/>
<path d="M174.699 65.2398H69.847C69.4489 65.2398 69.067 65.0815 68.7855 64.7997C68.504 64.5179 68.3458 64.1357 68.3458 63.7371C68.3458 63.3386 68.504 62.9563 68.7855 62.6745C69.067 62.3927 69.4489 62.2344 69.847 62.2344H174.699C175.098 62.2344 175.479 62.3927 175.761 62.6745C176.043 62.9563 176.201 63.3386 176.201 63.7371C176.201 64.1357 176.043 64.5179 175.761 64.7997C175.479 65.0815 175.098 65.2398 174.699 65.2398Z" fill="#E6E6E6"/>
<path d="M174.699 65.2398H69.847C69.4489 65.2398 69.067 65.0815 68.7855 64.7997C68.504 64.5179 68.3458 64.1357 68.3458 63.7371C68.3458 63.3386 68.504 62.9563 68.7855 62.6745C69.067 62.3927 69.4489 62.2344 69.847 62.2344H174.699C175.098 62.2344 175.479 62.3927 175.761 62.6745C176.043 62.9563 176.201 63.3386 176.201 63.7371C176.201 64.1357 176.043 64.5179 175.761 64.7997C175.479 65.0815 175.098 65.2398 174.699 65.2398Z" fill="#E6E6E6"/>
<path d="M132.114 51.0468C132.131 51.4995 132.246 51.943 132.453 52.3461C132.659 52.7491 132.952 53.102 133.309 53.3798C133.666 53.6576 134.08 53.8536 134.522 53.9539C134.963 54.0543 135.421 54.0566 135.863 53.9606L141.588 63.3621L144.024 58.1864L138.214 50.0521C138.004 49.3191 137.533 48.6888 136.889 48.2806C136.246 47.8723 135.475 47.7146 134.723 47.8372C133.971 47.9598 133.29 48.3543 132.809 48.9459C132.328 49.5374 132.081 50.285 132.114 51.0468Z" fill="#FFB6B6"/>
<path d="M175.077 77.991L155.347 67.2784L149.124 61.4339C149.124 61.4339 146.419 60.7088 147.414 59.8283C148.41 58.9477 145.573 58.0985 145.573 58.0985L142.232 54.961L137.485 58.3233L138.859 60.4551C138.859 60.4551 138.764 63.9843 140.696 63.3053C142.627 62.6264 142.144 65.5533 142.144 65.5533L153.672 83.4413L175.077 77.991Z" fill="#121212"/>
<path d="M116.837 67.8981C127.48 67.8981 136.108 59.2613 136.108 48.6074C136.108 37.9535 127.48 29.3168 116.837 29.3168C106.194 29.3168 97.5663 37.9535 97.5663 48.6074C97.5663 59.2613 106.194 67.8981 116.837 67.8981Z" fill="#C0FC34"/>
<path d="M175.138 218.5H171.131L169.224 203.029H175.138V218.5Z" fill="#FFB6B6"/>
<path d="M177.253 225.45H174.379L173.866 222.734L172.553 225.45H164.931C164.566 225.45 164.21 225.333 163.916 225.116C163.622 224.899 163.404 224.594 163.296 224.245C163.187 223.896 163.193 223.521 163.312 223.175C163.431 222.83 163.657 222.531 163.958 222.323L170.044 218.116V215.37L176.446 215.753L177.253 225.45Z" fill="#121212"/>
<path d="M143.09 218.5H139.083L137.176 203.029H143.09V218.5Z" fill="#FFB6B6"/>
<path d="M145.205 225.45H142.332L141.819 222.734L140.505 225.45H132.884C132.518 225.45 132.163 225.333 131.868 225.116C131.574 224.899 131.357 224.594 131.248 224.245C131.139 223.896 131.145 223.521 131.264 223.175C131.383 222.83 131.61 222.531 131.91 222.323L137.996 218.116V215.37L144.398 215.753L145.205 225.45Z" fill="#121212"/>
<path d="M170.886 101.493H150.662V124.541H170.886V101.493Z" fill="#FFB6B6"/>
<path d="M151.129 112.862L147.706 116.911L141.794 129.369L126.898 164.847L123.748 172.35L126.292 185.614C126.292 185.614 126.704 194.959 126.704 196.488C126.704 199.603 129.306 201.329 129.306 201.329L131.216 211.282L149.729 210.504C149.729 210.504 149.083 199.532 145.205 196.764C141.328 193.997 139.545 179.573 139.545 179.573L137.438 173.173L157.974 148.806L158.106 157.323L158.171 161.446C158.171 161.446 155.163 188.261 158.669 193.464C162.174 198.668 158.74 198.056 158.74 198.056L158.907 208.791L180.843 208.947L176.003 178.041C176.003 178.041 173.546 176.099 174.861 174.147C176.176 172.194 173.587 169.803 173.587 169.803L174.748 145.676C174.748 145.676 173.462 141.509 174.974 140.967C176.487 140.426 175.173 136.842 175.173 136.842L175.398 132.172L170.886 117.689L151.129 112.862Z" fill="white"/>
<path d="M171.197 101.493L173.375 94.9528L174.931 92.7726L175.553 86.5434C175.553 69.7246 171.806 72.5253 171.806 72.5253L169.642 66.61L159.685 66.2986L153.307 72.372L148.017 74.2408L145.946 85.0142L149.729 96.5101L150.662 102.739C148.881 106.03 149.032 104.473 150.506 106.944L168.086 111.772C174.309 113.952 174.309 108.345 173.061 106.944C171.813 105.542 171.197 101.493 171.197 101.493Z" fill="#121212"/>
<path d="M163.377 64.2078C168.475 64.2078 172.607 60.0712 172.607 54.9684C172.607 49.8656 168.475 45.7289 163.377 45.7289C158.28 45.7289 154.147 49.8656 154.147 54.9684C154.147 60.0712 158.28 64.2078 163.377 64.2078Z" fill="#FFB6B6"/>
<path d="M175.7 67.3015C175.787 67.4484 175.839 67.613 175.854 67.7831C175.868 67.9532 175.844 68.1244 175.784 68.284C175.723 68.4436 175.627 68.5874 175.503 68.7047C175.379 68.822 175.23 68.9098 175.068 68.9616C173.83 69.3727 173.067 70.5718 172.177 71.5311C171.291 72.4873 169.863 73.2815 168.73 72.6305C167.601 71.9827 167.523 70.3289 166.577 69.4319C165.656 68.5598 164.125 68.6657 163.042 69.3291L163.01 69.349C162.823 69.471 162.605 69.5354 162.381 69.5344C162.158 69.5334 161.94 69.467 161.755 69.3433C161.569 69.2196 161.423 69.0441 161.336 68.8386C161.249 68.633 161.224 68.4064 161.264 68.1867C161.643 66.1669 162.022 64.1474 162.401 62.1282C161.406 64.5296 159.96 66.7181 158.142 68.5753C157.641 69.1538 157.007 69.6007 156.294 69.8772C155.646 70.0828 155.018 69.4132 154.389 69.5346C155.951 68.1673 161.203 59.4029 160.264 53.5443C159.159 53.6689 158.055 53.7935 156.95 53.9181C156.831 53.3948 156.575 52.9124 156.21 52.5197C156.254 53.0289 156.19 53.5418 156.02 54.024C155.559 54.077 155.096 54.1268 154.635 54.1797C153.994 54.2514 153.297 54.3137 152.747 53.9773C151.829 53.4167 151.801 52.0899 152.062 51.0433C152.828 48.0004 155.149 45.4558 157.989 44.1227C160.83 42.7928 161.67 45.7548 164.663 44.808C170.575 42.9392 175.105 46.1348 176.701 52.0649C178.042 57.0389 177.069 62.3181 175.7 67.3015Z" fill="#3E3E44"/>
<path d="M115.086 74.5712L103.272 64.5847C102.868 64.2426 102.617 63.7541 102.572 63.2264C102.528 62.6987 102.694 62.175 103.035 61.77L105.209 59.1927C105.551 58.7885 106.039 58.5365 106.566 58.492C107.093 58.4475 107.617 58.6142 108.021 58.9554L119.835 68.9419C120.238 69.284 120.49 69.7725 120.535 70.3002C120.579 70.8279 120.413 71.3517 120.072 71.7566L117.897 74.3339C117.556 74.7381 117.068 74.9901 116.54 75.0346C116.013 75.0791 115.49 74.9125 115.086 74.5712Z" fill="#3F3D56"/>
<path d="M103.892 61.9778C103.708 62.196 103.619 62.4783 103.643 62.7626C103.667 63.047 103.802 63.3102 104.02 63.4946L115.833 73.4811C116.051 73.665 116.333 73.7548 116.617 73.7308C116.901 73.7068 117.164 73.571 117.348 73.3532L119.523 70.776C119.706 70.5577 119.796 70.2755 119.772 69.9911C119.748 69.7067 119.613 69.4435 119.395 69.2591L107.582 59.2726C107.364 59.0888 107.082 58.999 106.798 59.0229C106.513 59.0469 106.25 59.1827 106.066 59.4005L103.892 61.9778Z" fill="white"/>
<path d="M111.065 66.6538C111.513 66.7196 111.941 66.8829 112.319 67.1321C112.697 67.3813 113.015 67.7105 113.252 68.0963C113.489 68.4822 113.639 68.9154 113.69 69.3654C113.742 69.8154 113.695 70.2712 113.551 70.7009L122.265 77.42L116.86 79.2818L109.414 72.6158C108.709 72.3268 108.134 71.7891 107.799 71.1043C107.464 70.4196 107.391 69.6355 107.594 68.9006C107.798 68.1658 108.264 67.5311 108.903 67.117C109.543 66.7029 110.312 66.5381 111.065 66.6538Z" fill="#FFB6B6"/>
<path d="M156.431 69.976L134.121 83.7071C134.121 83.7071 125.126 80.3754 126.884 78.8331C128.642 77.2908 123.045 76.2481 123.045 76.2481L116.863 72.0846L113.276 76.2581C113.276 76.2581 113.929 83.0372 115.042 81.8634C116.154 80.6895 117.816 83.8961 117.816 83.8961C117.816 83.8961 118.308 87.4765 121.474 86.5754C124.64 85.6744 133.135 95.1188 133.135 95.1188L160.592 84.868L156.431 69.976Z" fill="#121212"/>
<path d="M116.16 56.3457C115.901 56.3457 115.646 56.2854 115.415 56.1696C115.183 56.0538 114.982 55.8856 114.827 55.6785L110.741 50.2248C110.61 50.0496 110.514 49.8502 110.46 49.6381C110.406 49.4259 110.394 49.2051 110.425 48.9883C110.455 48.7715 110.529 48.563 110.64 48.3745C110.752 48.1861 110.899 48.0214 111.074 47.8901C111.428 47.6247 111.872 47.5107 112.309 47.5733C112.526 47.6043 112.734 47.6777 112.923 47.7893C113.111 47.9008 113.275 48.0484 113.407 48.2237L116.08 51.7913L122.946 41.4822C123.191 41.1142 123.572 40.8587 124.005 40.772C124.438 40.6852 124.888 40.7743 125.256 41.0197C125.624 41.265 125.879 41.6465 125.966 42.0803C126.052 42.514 125.963 42.9644 125.718 43.3324L117.546 55.603C117.398 55.8249 117.199 56.0081 116.966 56.1373C116.733 56.2664 116.472 56.3377 116.206 56.3452C116.191 56.3454 116.175 56.3457 116.16 56.3457Z" fill="#121212"/>
</svg>
